# This file uses centimeters as units for non-parametric coordinates.

mtllib link2.mtl
g default
v 2.126935 3.479150 77.243912
v 5.039107 3.973830 61.597187
v 10.479132 4.248058 64.311981
v 9.644482 0.000000 77.300003
v 9.939534 5.311042 68.810196
v 5.039107 5.323710 67.413277
v 2.146679 5.311228 67.417328
v -5.544793 3.612929 67.437050
v 0.944632 0.000000 61.128986
v 5.039107 0.000000 61.136436
v 11.859583 0.000000 62.827148
v 14.506551 0.000000 67.996124
v 5.039107 0.000000 77.300003
v 2.126935 0.000000 77.300003
v -0.948606 0.000000 77.300003
v -5.822042 0.000000 67.436806
v 9.644482 3.479150 77.243912
v 12.260711 0.000000 66.410294
v 0.944632 4.049587 61.397552
v 13.949208 3.582411 66.829330
v 13.961819 0.000000 66.562271
v 5.039107 3.479150 77.243912
v -5.587774 0.000000 74.720406
v -3.778899 3.568414 75.702530
v -4.986703 4.063651 62.331371
v -4.963721 0.000000 61.913593
v 13.926511 0.000000 77.363640
v 13.926511 3.541585 77.228477
v 5.039107 -3.973830 61.597187
v 10.479132 -4.248058 64.311981
v -5.773821 -2.665610 67.437050
v 9.939534 -5.311042 68.810196
v 14.003305 -4.147087 69.360016
v -1.184845 -5.290182 67.487755
v 2.146679 -5.311228 67.417328
v 5.039107 -5.323710 67.413277
v 0.944632 -4.049587 61.333183
v 13.949208 -3.582411 66.829330
v 2.126935 -3.479150 77.243912
v 5.039107 -3.479150 77.243912
v 9.644482 -3.479150 77.243912
v 10.509005 -4.683380 66.679565
v 13.926511 -3.541585 77.228477
v -5.238473 -2.978705 63.120792
v -3.778899 -3.568414 75.702530
v 0.171972 0.000000 61.136517
v -1.132453 4.203542 61.317493
v -1.184845 5.290182 67.487755
v -1.044872 3.646613 77.243912
v -1.044872 -3.646613 77.243912
v -1.089381 -4.087271 61.329765
v 13.945712 3.576122 68.431190
v 5.039107 -4.785609 65.094818
v 1.647012 -4.786789 64.888275
v -1.144589 -4.782919 64.890953
v -5.530208 -1.838990 64.784874
v -5.470273 0.000000 65.173203
v -5.360075 3.762110 65.747154
v -1.166454 4.908750 65.321877
v 1.619396 4.875118 65.415436
v 2.126935 3.479150 77.243912
v -1.044872 3.646613 77.243912
v -1.044872 -3.646613 77.243912
v 2.126935 -3.479150 77.243912
v 5.039107 -3.479150 77.243912
v 9.644482 -3.479150 77.243912
v 9.644482 3.479150 77.243912
v 5.039107 3.479150 77.243912
v -3.778899 3.568414 75.702530
v -5.544793 3.612929 67.437050
v -5.360075 3.762110 65.747154
v -3.778899 -3.568414 75.702530
v -5.773821 -2.665610 67.437050
v -5.530208 -1.838990 64.784874
v -1.089381 -4.087271 61.329765
v -5.238473 -2.978705 63.120792
v 0.944632 -4.049587 61.333183
v 5.039107 -3.973830 61.597187
v -1.132453 4.203542 61.317493
v 0.944632 4.049587 61.397552
v 5.039107 3.973830 61.597187
v -4.986703 4.063651 62.331371
v 12.260711 0.000000 66.410294
v -5.530208 -1.838990 64.784874
v -1.144589 -4.782919 64.890953
v 1.647012 -4.786789 64.888275
v 5.039107 -4.785609 65.094818
v 10.509005 -4.683380 66.679565
v 10.808675 4.587210 66.798042
v 5.039107 4.837689 65.319206
v 1.744401 4.889006 65.402740
v -1.166454 4.908750 65.321877
v -5.360075 3.762110 65.747154
v 1.619396 4.875118 65.415436
v -5.360075 3.762110 65.747154
v -5.470273 0.000000 65.173203
v -5.530208 -1.838990 64.784874
v 14.506551 0.000000 67.996124
v 13.961819 0.000000 66.562271
v 12.260711 0.000000 66.410294
v 13.926511 0.000000 77.363640
v 9.644482 0.000000 77.300003
v 5.039107 0.000000 77.300003
v 2.126935 0.000000 77.300003
v -0.948606 0.000000 77.300003
v -5.587774 0.000000 74.720406
v -5.822042 0.000000 67.436806
v -5.470273 0.000000 65.173203
v 14.003305 -4.147087 69.360016
v 13.926511 -3.541585 77.228477
v 13.945712 3.576122 68.431190
v 13.926511 3.541585 77.228477
v 13.961819 0.000000 66.562271
v 13.949208 3.582411 66.829330
v 13.949208 -3.582411 66.829330
v 13.961819 0.000000 66.562271
v 13.949208 3.582411 66.829330
v 5.039107 3.479150 77.243912
v 10.509005 -4.683380 66.679565
v 13.949208 -3.582411 66.829330
vt 0.562500 0.500000
vt 0.562500 0.562500
vt 0.625000 0.562500
vt 0.875000 0.250000
vt 0.875000 0.187500
vt 0.875000 0.187500
vt 0.875000 0.250000
vt 0.375000 0.562500
vt 0.437500 0.562500
vt 0.437500 0.500000
vt 0.375000 0.500000
vt 0.000000 0.000000
vt 0.000000 1.000000
vt 1.000000 1.000000
vt 1.000000 0.000000
vt 1.000000 0.406391
vt 1.000000 0.000000
vt 0.000000 0.000000
vt 0.003348 0.150690
vt 0.000000 0.000000
vt 0.000000 1.000000
vt 1.000000 1.000000
vt 1.000000 0.000000
vt 0.000210 0.000060
vt 0.000210 0.999805
vt 1.000000 1.000000
vt 1.000000 0.000000
vt 0.519408 0.517692
vt 0.519408 0.148402
vt 0.773402 0.224601
vt 0.625060 0.187515
vt 0.562500 0.187500
vt 0.693776 0.292526
vt 0.500000 0.187500
vt 0.511418 0.386701
vt 0.000000 0.000000
vt 0.000000 1.000000
vt 1.000000 1.000000
vt 1.000000 0.000000
vt 0.000000 0.000000
vt 0.000000 1.000000
vt 1.000000 1.000000
vt 1.000000 0.000000
vt 0.437500 0.386701
vt 0.437500 0.187500
vt 0.384881 0.187500
vt 0.379016 0.368151
vt 0.637103 0.182029
vt 0.665142 0.382368
vt 0.807029 0.233008
vt 0.757389 0.277599
vt 0.528513 0.424618
vt 0.535381 0.420909
vt 0.437500 0.427494
vt 1.000000 1.000000
vt 0.000000 0.000000
vt 0.000000 1.000000
vt 1.000000 1.000000
vt 0.021735 0.978265
vt 0.000000 0.000000
vt 0.000000 0.978265
vt 1.000000 0.978265
vt 1.000000 0.000000
vt 0.773402 0.224601
vt 0.693776 0.292526
vt 0.562500 0.187500
vt 0.625060 0.187515
vt 0.511418 0.386701
vt 0.500000 0.187500
vt 0.437500 0.386701
vt 0.379016 0.368151
vt 0.384881 0.187500
vt 0.437500 0.187500
vt 0.832578 0.239395
vt 0.664773 0.380017
vt 0.532652 0.433797
vt 0.437500 0.431865
vt 0.377008 0.434076
vt 0.000000 0.000000
vt 1.000000 0.000000
vt 1.000000 0.406391
vt 0.000000 0.406391
vt 1.000000 1.000000
vt 0.021735 0.978265
vt 0.000000 0.000000
vt 1.000000 0.000000
vt 1.000000 1.000000
vt 0.000000 1.000000
vt 0.000000 0.000000
vt 1.000000 0.000000
vt 1.000000 1.000000
vt 0.000000 1.000000
vt 0.000000 0.000000
vt 1.000000 0.000000
vt 1.000000 1.000000
vt 0.000000 1.000000
vt 0.000210 0.000060
vt 1.000000 0.000000
vt 1.000000 1.000000
vt 0.000210 0.999805
vt 0.519408 0.517692
vt 0.519408 0.148402
vt 0.665142 0.382368
vt 0.726523 0.207578
vt 0.875000 0.187500
vt 0.625000 0.500000
vt 0.875000 0.250000
vt 0.875000 0.187500
vt 0.562500 0.500000
vt 0.625000 0.562500
vt 0.562500 0.562500
vt 0.437500 0.500000
vt 0.437500 0.562500
vt 0.375000 0.562500
vt 0.375000 0.500000
vt 0.000000 1.000000
vt 0.000000 0.000000
vt 1.000000 0.000000
vt 1.000000 1.000000
vt 0.000000 1.000000
vt 0.000000 0.000000
vt 0.156412 0.126997
vt 1.000000 0.406391
vt 0.986415 0.983698
vt 0.789103 0.531749
vt 1.000000 0.978265
vt 1.000000 0.978265
vt 0.000000 0.978265
vt 0.000000 0.000000
vt 1.000000 0.000000
vt 0.156412 0.126997
vt 0.986415 0.983698
vt 0.997907 0.151527
vt 1.000000 0.000000
vt 1.000000 0.000000
vt 0.437500 0.187500
vt 0.437500 0.500000
vt 0.377008 0.434076
vt 0.437500 0.431865
vt 0.562500 0.500000
vt 0.437500 0.500000
vt 0.437500 0.431865
vt 0.532652 0.433797
vt 0.625000 0.500000
vt 0.562500 0.500000
vt 0.532652 0.433797
vt 0.664773 0.380017
vt 0.875000 0.250000
vt 0.625000 0.500000
vt 0.664773 0.380017
vt 0.832578 0.239395
vt 0.665142 0.382368
vt 0.726523 0.207578
vt 0.637103 0.182029
vt 0.665142 0.382368
vt 0.875000 0.250000
vt 0.807029 0.233008
vt 0.757389 0.277599
vt 0.875000 0.250000
vt 0.875000 0.250000
vt 0.757389 0.277599
vt 0.535381 0.420909
vt 0.562500 0.500000
vt 0.562500 0.500000
vt 0.437500 0.500000
vt 0.437500 0.500000
vn -0.028574 -0.058869 0.997857
vn -0.028574 -0.058869 0.997857
vn -0.028574 -0.058869 0.997857
vn -0.028574 -0.058869 0.997857
vn 0.195817 -0.039525 0.979844
vn 0.195817 -0.039525 0.979844
vn 0.195817 -0.039525 0.979844
vn 0.195817 -0.039525 0.979844
vn -0.320387 -0.268744 0.908366
vn -0.320387 -0.268744 0.908366
vn -0.320387 -0.268744 0.908366
vn -0.320387 -0.268744 0.908366
vn -0.935657 -0.327715 0.130956
vn -0.935657 -0.327715 0.130956
vn -0.935657 -0.327715 0.130956
vn -0.935657 -0.327715 0.130956
vn -0.979998 -0.095623 0.174526
vn -0.979999 -0.095623 0.174526
vn -0.979998 -0.095623 0.174526
vn -0.979998 -0.095623 0.174526
vn -0.000422 -0.015747 -0.999876
vn -0.000422 -0.015747 -0.999876
vn -0.000422 -0.015747 -0.999876
vn -0.000422 -0.015747 -0.999876
vn 0.487906 -0.003780 -0.872888
vn 0.487906 -0.003780 -0.872888
vn 0.487906 -0.003780 -0.872888
vn 0.487906 -0.003780 -0.872888
vn 0.957316 -0.261144 -0.123892
vn 0.957316 -0.261144 -0.123892
vn 0.957316 -0.261144 -0.123892
vn 0.957316 -0.261144 -0.123892
vn 0.263323 -0.957520 -0.117538
vn 0.263323 -0.957521 -0.117538
vn 0.263323 -0.957521 -0.117538
vn 0.263323 -0.957521 -0.117538
vn -0.026014 -0.090495 0.995557
vn -0.026014 -0.090495 0.995557
vn -0.026014 -0.090495 0.995557
vn -0.026014 -0.090495 0.995557
vn -0.024052 -0.984353 -0.174560
vn -0.024052 -0.984353 -0.174560
vn -0.024052 -0.984353 -0.174560
vn -0.024052 -0.984353 -0.174560
vn 0.000000 -0.016120 -0.999870
vn 0.000000 -0.016120 -0.999870
vn 0.000000 -0.016120 -0.999870
vn 0.000000 -0.016120 -0.999870
vn 0.000000 -0.016120 -0.999870
vn 0.000000 -0.016120 -0.999870
vn 0.000000 -0.016120 -0.999870
vn 0.000000 -0.016120 -0.999870
vn 0.027619 -0.980049 -0.196829
vn 0.027619 -0.980049 -0.196829
vn 0.027619 -0.980049 -0.196829
vn 0.027619 -0.980049 -0.196829
vn 0.001985 -0.982953 -0.183847
vn 0.001985 -0.982953 -0.183847
vn 0.001985 -0.982953 -0.183847
vn 0.001985 -0.982953 -0.183847
vn 0.989307 -0.062242 0.131899
vn 0.989307 -0.062242 0.131899
vn 0.989307 -0.062242 0.131899
vn 0.989307 -0.062242 0.131899
vn 0.315554 -0.946048 0.073607
vn 0.315554 -0.946049 0.073607
vn 0.315554 -0.946048 0.073607
vn 0.315554 -0.946048 0.073607
vn -0.000177 -0.981283 0.192573
vn -0.000177 -0.981283 0.192573
vn -0.000177 -0.981283 0.192573
vn -0.000177 -0.981283 0.192573
vn -0.000177 -0.981283 0.192573
vn -0.003069 -0.976360 0.216130
vn -0.003069 -0.976360 0.216130
vn -0.003069 -0.976360 0.216130
vn -0.003069 -0.976360 0.216130
vn -0.094536 -0.960181 0.262897
vn -0.094536 -0.960181 0.262897
vn -0.094536 -0.960181 0.262897
vn -0.094536 -0.960181 0.262897
vn 0.005825 -0.027231 -0.999612
vn 0.005825 -0.027231 -0.999612
vn 0.005825 -0.027231 -0.999612
vn 0.005825 -0.027231 -0.999612
vn -0.056271 -0.089789 0.994370
vn -0.056271 -0.089789 0.994370
vn -0.056271 -0.089789 0.994370
vn -0.056271 -0.089789 0.994370
vn 0.360548 0.929225 -0.080907
vn 0.360548 0.929225 -0.080907
vn 0.360548 0.929225 -0.080907
vn 0.360548 0.929225 -0.080907
vn -0.024052 0.984353 -0.174560
vn -0.024052 0.984353 -0.174560
vn -0.024052 0.984353 -0.174560
vn -0.024052 0.984353 -0.174560
vn 0.027619 0.980049 -0.196829
vn 0.027619 0.980049 -0.196829
vn 0.027619 0.980049 -0.196829
vn 0.027619 0.980049 -0.196829
vn 0.001986 0.982953 -0.183847
vn 0.001986 0.982953 -0.183847
vn 0.001986 0.982953 -0.183847
vn 0.001986 0.982953 -0.183847
vn 0.509111 0.827214 0.237747
vn 0.509111 0.827213 0.237747
vn 0.509111 0.827213 0.237747
vn 0.509111 0.827214 0.237747
vn 0.006339 0.980430 0.196767
vn 0.006339 0.980430 0.196767
vn 0.006339 0.980430 0.196767
vn 0.006339 0.980430 0.196767
vn -0.005158 0.976685 0.214614
vn -0.005158 0.976685 0.214614
vn -0.005158 0.976685 0.214614
vn -0.005158 0.976685 0.214614
vn -0.080572 0.966680 0.242979
vn -0.080572 0.966680 0.242979
vn -0.080572 0.966680 0.242979
vn -0.080572 0.966680 0.242979
vn -0.981650 0.099800 0.162490
vn -0.981650 0.099800 0.162490
vn -0.981650 0.099800 0.162490
vn -0.981650 0.099800 0.162490
vn -0.997460 0.058881 -0.040080
vn -0.997460 0.058881 -0.040080
vn -0.997460 0.058881 -0.040080
vn -0.997460 0.058881 -0.040080
vn 0.000000 0.016120 -0.999870
vn 0.000000 0.016120 -0.999870
vn 0.000000 0.016120 -0.999870
vn 0.000000 0.016120 -0.999870
vn 0.000000 0.016120 -0.999870
vn 0.000000 0.016120 -0.999870
vn 0.000000 0.016120 -0.999870
vn 0.000000 0.016120 -0.999870
vn -0.000423 0.015747 -0.999876
vn -0.000423 0.015747 -0.999876
vn -0.000423 0.015747 -0.999876
vn -0.000423 0.015747 -0.999876
vn 0.487907 0.003780 -0.872887
vn 0.487907 0.003780 -0.872887
vn 0.487907 0.003780 -0.872888
vn 0.487907 0.003780 -0.872888
vn 0.956342 0.265717 -0.121678
vn 0.956342 0.265717 -0.121678
vn 0.956342 0.265717 -0.121678
vn 0.956342 0.265717 -0.121678
vn 0.992918 -0.012758 0.118113
vn 0.992918 -0.012758 0.118113
vn 0.992918 -0.012758 0.118113
vn 0.992918 -0.012758 0.118113
vn 0.278566 0.128092 0.951837
vn 0.278566 0.128092 0.951837
vn 0.278566 0.128092 0.951837
vn 0.278566 0.128092 0.951837
vn 0.000806 0.048662 0.998815
vn 0.000806 0.048662 0.998815
vn 0.000806 0.048662 0.998815
vn 0.000806 0.048662 0.998815
vn -0.033780 0.082546 0.996015
vn -0.033780 0.082546 0.996015
vn -0.033780 0.082546 0.996015
vn -0.033780 0.082546 0.996015
vn -0.320387 0.268744 0.908366
vn -0.320387 0.268744 0.908366
vn -0.320387 0.268744 0.908366
vn -0.320387 0.268744 0.908366
vn -0.933734 0.345698 0.092918
vn -0.933734 0.345698 0.092918
vn -0.933734 0.345698 0.092918
vn -0.933734 0.345698 0.092918
vn 0.005825 0.027231 -0.999612
vn 0.005825 0.027231 -0.999612
vn 0.005825 0.027231 -0.999612
vn 0.005825 0.027231 -0.999612
vn -0.119967 0.981460 -0.149478
vn -0.119967 0.981460 -0.149478
vn -0.119967 0.981460 -0.149478
vn -0.119967 0.981460 -0.149478
vn -0.300286 0.931541 0.205082
vn -0.300286 0.931541 0.205082
vn -0.300286 0.931542 0.205082
vn -0.300286 0.931541 0.205082
vn -0.075594 0.080624 0.993874
vn -0.075594 0.080624 0.993874
vn -0.075594 0.080624 0.993874
vn -0.075594 0.080624 0.993874
vn -0.996475 -0.077125 -0.033019
vn -0.996475 -0.077125 -0.033019
vn -0.996475 -0.077125 -0.033019
vn -0.996475 -0.077125 -0.033019
vn -0.201610 -0.973370 -0.109110
vn -0.201610 -0.973370 -0.109110
vn -0.201610 -0.973370 -0.109110
vn -0.201610 -0.973370 -0.109110
vn -0.351929 -0.930690 0.099808
vn -0.351929 -0.930690 0.099808
vn -0.351929 -0.930690 0.099808
vn -0.351929 -0.930690 0.099808
vn -0.066524 0.975898 0.207841
vn -0.066524 0.975898 0.207841
vn -0.066524 0.975898 0.207841
vn -0.066524 0.975898 0.207841
vn -0.023650 0.975951 0.216702
vn -0.023650 0.975951 0.216702
vn -0.023650 0.975951 0.216702
vn -0.023650 0.975951 0.216702
vn -0.006899 0.980181 0.197985
vn -0.006899 0.980181 0.197985
vn -0.006899 0.980181 0.197985
vn -0.006899 0.980181 0.197985
vn 0.420488 0.905970 -0.049074
vn 0.420488 0.905970 -0.049074
vn 0.420488 0.905970 -0.049074
vn 0.420488 0.905970 -0.049074
vn 0.984838 -0.039715 0.168867
vn 0.984838 -0.039715 0.168867
vn 0.984838 -0.039715 0.168867
vn 0.984838 -0.039715 0.168867
vn 0.991210 -0.027447 0.129418
vn 0.991210 -0.027447 0.129418
vn 0.991210 -0.027447 0.129418
vn 0.991210 -0.027447 0.129418
vn 0.168479 -0.983705 0.062765
vn 0.168479 -0.983705 0.062765
vn 0.168479 -0.983705 0.062765
vn 0.168479 -0.983705 0.062765
vn -0.040247 -0.980870 0.190457
vn -0.040247 -0.980870 0.190457
vn -0.040247 -0.980870 0.190457
vn -0.040247 -0.980870 0.190457
vn -0.040247 -0.980870 0.190457
vn -0.020196 -0.975916 0.217208
vn -0.020196 -0.975916 0.217208
vn -0.020196 -0.975916 0.217208
vn -0.020196 -0.975916 0.217208
vn -0.070267 -0.978607 0.193366
vn -0.070267 -0.978607 0.193366
vn -0.070267 -0.978607 0.193366
vn -0.070267 -0.978607 0.193366
s off
g link2:Mesh
usemtl initialShadingGroup
f 80/1/1 79/4/2 46/3/3 9/2/4
f 46/5/5 79/4/6 82/7/7 26/6/8
f 11/8/9 3/11/10 81/10/11 10/9/12
f 3/12/13 11/15/14 83/14/15 89/13/16
f 98/16/17 111/19/18 114/18/19 113/17/20
f 62/20/21 61/23/22 104/22/23 105/21/24
f 69/24/25 62/27/26 105/26/27 106/25/28
f 107/28/29 70/29/30 69/24/31 106/25/32
f 8/30/33 48/33/34 49/32/35 24/31/36
f 81/10/37 80/1/38 9/2/39 10/9/40
f 48/33/41 7/35/42 1/34/43 49/32/44
f 61/36/45 68/39/46 103/38/47 104/37/48
f 68/40/49 67/43/50 102/42/51 103/41/52
f 6/44/53 5/47/54 17/46/55 118/45/56
f 7/35/57 6/44/58 22/136/59 1/34/60
f 107/28/61 108/49/62 95/48/63 70/29/64
f 93/50/65 92/51/66 48/33/67 8/30/68
f 92/51/69 94/53/70 91/52/71 7/35/72 48/33/73
f 91/52/74 90/54/75 6/44/76 7/35/77
f 90/54/78 89/55/79 5/47/80 6/44/81
f 67/56/82 112/59/83 101/58/84 102/57/85
f 89/60/86 100/63/87 99/62/88 117/61/89
f 73/64/90 72/67/91 50/66/92 34/65/93
f 34/65/94 50/66/95 39/69/96 35/68/97
f 36/70/98 40/73/99 41/72/100 32/71/101
f 35/68/102 39/69/103 40/73/104 36/70/105
f 84/74/106 73/64/107 34/65/108 85/75/109
f 85/75/110 34/65/111 35/68/112 86/76/113
f 86/76/114 35/68/115 36/70/116 87/77/117
f 87/77/118 36/70/119 32/71/120 119/78/121
f 115/79/122 109/82/123 12/81/124 116/80/125
f 109/82/126 110/84/127 27/83/128 12/81/129
f 65/85/130 13/88/131 4/87/132 66/86/133
f 64/89/134 14/92/135 13/91/136 65/90/137
f 63/93/138 15/96/139 14/95/140 64/94/141
f 45/97/142 23/100/143 15/99/144 63/98/145
f 23/100/146 45/97/147 31/102/148 16/101/149
f 16/101/150 31/102/151 97/104/152 96/103/153
f 46/105/154 26/108/155 76/107/156 75/106/157
f 77/109/158 9/111/159 46/110/160 75/106/161
f 78/112/162 10/113/163 9/111/164 77/109/165
f 11/114/166 10/113/167 78/112/168 30/115/169
f 42/116/170 83/119/171 11/118/172 30/117/173
f 4/120/174 27/83/175 110/84/176 66/121/177
f 41/72/178 43/124/179 33/123/180 32/122/181
f 32/122/182 33/123/183 120/126/184 119/125/185
f 21/127/186 18/130/187 88/129/188 38/128/189
f 112/59/190 111/19/191 98/16/192 101/58/193
f 5/131/194 52/133/195 28/132/196 17/46/197
f 5/47/198 89/55/199 20/134/200 52/133/201
f 29/137/202 53/139/203 42/138/204 30/115/205
f 37/140/206 54/143/207 53/142/208 29/141/209
f 51/144/210 55/147/211 54/146/212 37/145/213
f 44/148/214 74/151/215 55/150/216 51/149/217
f 57/152/218 56/153/219 76/107/220 26/108/221
f 71/154/222 57/155/223 26/6/224 82/7/225
f 25/156/226 47/159/227 59/158/228 58/157/229
f 47/160/230 19/163/231 91/52/232 60/162/233 59/161/234
f 19/164/235 2/165/236 90/54/237 91/52/238
f 3/135/239 89/55/240 90/54/241 2/166/242
