# This file uses centimeters as units for non-parametric coordinates.

mtllib Honduras.mtl
v -70.004355 -31.640411 0.000000
v -40.578855 -45.287781 0.000000
v -72.374796 -12.242340 0.000000
v -24.383616 -30.903121 0.000000
v -18.475967 3.350657 0.000000
v -38.094860 44.076913 0.000000
v -51.083820 19.787401 0.000000
v -25.337064 69.597574 0.000000
v -6.789635 116.267979 0.000000
v -15.212505 89.850849 0.000000
v 1.741923 19.752524 0.000000
v 6.368439 46.484157 0.000000
v 16.082987 68.733043 0.000000
v 28.466055 87.083679 0.000000
v -0.571677 77.797969 0.000000
v -9.722168 58.214188 0.000000
v -18.475156 32.097165 0.000000
v -35.024440 11.692316 0.000000
v -48.118634 -19.934593 -0.000000
v -63.845671 -84.758860 0.000000
v -83.039547 -75.160705 0.000000
v -83.039547 -48.424813 0.000000
v -43.164237 -69.443259 0.000000
v -70.004355 -31.640411 0.000000
v -40.578855 -45.287781 0.000000
v -1.455839 -65.564781 0.000000
v -24.383616 -81.027697 0.000000
v 17.209200 -74.631868 0.000000
v 17.209200 -104.488671 0.000000
v -15.323220 -115.158188 0.000000
v 100.641000 71.903533 0.000000
v 87.964314 55.037818 0.000000
v 63.907892 65.490061 0.000000
v 56.270572 89.567573 0.000000
v 64.131350 9.087569 0.000000
v 84.253530 28.250928 0.000000
v 44.399308 20.819222 0.000000
v 48.998247 47.674548 0.000000
v 63.907892 65.490061 0.000000
v 87.964314 55.037818 0.000000
v 21.471532 6.951841 0.000000
v 44.399308 20.819222 0.000000
v 48.998247 47.674548 0.000000
v 56.270572 89.567573 0.000000
v 63.907892 65.490061 0.000000
v 1.741923 19.752524 0.000000
v 6.368439 46.484157 0.000000
v 16.082987 68.733043 0.000000
v 28.466055 87.083679 0.000000
v 17.000342 -20.229447 0.000000
v -3.056140 -39.436909 0.000000
v 36.771721 -57.293586 0.000000
v 50.525143 -36.876469 0.000000
v 61.573951 -14.127033 0.000000
v 21.471532 6.951841 0.000000
v -1.455839 -65.564781 0.000000
v 17.209200 -74.631868 0.000000
v 44.399308 20.819222 0.000000
v 64.131350 9.087569 0.000000
v 41.726144 -6.029032 0.000000
v 34.463736 -28.901021 0.000000
v 19.106629 -47.063853 -0.000000
v -3.056140 -39.436909 0.000000
v -1.455839 -65.564781 0.000000
v -40.578855 -45.287781 0.000000
v -24.383616 -30.903121 0.000000
v -24.383616 -81.027697 0.000000
v -43.164237 -69.443259 0.000000
v 21.471532 6.951841 0.000000
v 17.000342 -20.229447 0.000000
v -18.475967 3.350657 0.000000
v 1.741923 19.752524 0.000000
v -3.056140 -39.436909 0.000000
v -24.383616 -30.903121 0.000000
vn 0.000000 0.000000 1.000000
vn 0.000000 0.000000 1.000000
vn 0.000000 0.000000 1.000000
vn 0.000000 0.000000 1.000000
vn 0.000000 0.000000 1.000000
vn 0.000000 0.000000 1.000000
vn 0.000000 0.000000 1.000000
vn 0.000000 0.000000 1.000000
vn 0.000000 0.000000 1.000000
vn 0.000000 0.000000 1.000000
vn 0.000000 0.000000 1.000000
vn 0.000000 0.000000 1.000000
vn 0.000000 0.000000 1.000000
vn 0.000000 0.000000 1.000000
vn 0.000000 0.000000 1.000000
vn 0.000000 0.000000 1.000000
vn 0.000000 0.000000 1.000000
vn 0.000000 0.000000 1.000000
vn 0.000000 0.000000 1.000000
vn 0.000000 0.000000 1.000000
vn 0.000000 0.000000 1.000000
vn 0.000000 0.000000 1.000000
vn 0.000000 0.000000 1.000000
vn 0.000000 0.000000 1.000000
vn 0.000000 0.000000 1.000000
vn 0.000000 0.000000 1.000000
vn 0.000000 0.000000 1.000000
vn 0.000000 0.000000 1.000000
vn 0.000000 0.000000 1.000000
vn 0.000000 0.000000 1.000000
vn 0.000000 0.000000 1.000000
vn 0.000000 0.000000 1.000000
vn 0.000000 0.000000 1.000000
vn 0.000000 0.000000 1.000000
vn 0.000000 0.000000 1.000000
vn 0.000000 0.000000 1.000000
vn 0.000000 0.000000 1.000000
vn 0.000000 0.000000 1.000000
vn 0.000000 0.000000 1.000000
vn 0.000000 0.000000 1.000000
vn 0.000000 0.000000 1.000000
vn 0.000000 0.000000 1.000000
vn 0.000000 0.000000 1.000000
vn 0.000000 0.000000 1.000000
vn 0.000000 0.000000 1.000000
vn 0.000000 0.000000 1.000000
vn 0.000000 0.000000 1.000000
vn 0.000000 0.000000 1.000000
vn 0.000000 0.000000 1.000000
vn 0.000000 0.000000 1.000000
vn 0.000000 0.000000 1.000000
vn 0.000000 0.000000 1.000000
vn 0.000000 0.000000 1.000000
vn 0.000000 0.000000 1.000000
vn 0.000000 0.000000 1.000000
vn 0.000000 0.000000 1.000000
vn 0.000000 0.000000 1.000000
vn 0.000000 0.000000 1.000000
vn 0.000000 0.000000 1.000000
vn 0.000000 0.000000 1.000000
vn 0.000000 0.000000 1.000000
vn 0.000000 0.000000 1.000000
vn 0.000000 0.000000 1.000000
vn 0.000000 0.000000 1.000000
vn 0.000000 0.000000 1.000000
vn 0.000000 0.000000 1.000000
vn 0.000000 0.000000 1.000000
vn 0.000000 0.000000 1.000000
vn 0.000000 0.000000 1.000000
vn 0.000000 0.000000 1.000000
vn 0.000000 0.000000 1.000000
vn 0.000000 0.000000 1.000000
vn 0.000000 0.000000 1.000000
vn 0.000000 0.000000 1.000000
vn 0.000000 0.000000 1.000000
vn 0.000000 0.000000 1.000000
vn 0.000000 0.000000 1.000000
vn 0.000000 0.000000 1.000000
vn 0.000000 0.000000 1.000000
vn 0.000000 0.000000 1.000000
vn 0.000000 0.000000 1.000000
vn 0.000000 0.000000 1.000000
vn 0.000000 0.000000 1.000000
vn 0.000000 0.000000 1.000000
vn 0.000000 0.000000 1.000000
vn 0.000000 0.000000 1.000000
vn 0.000000 0.000000 1.000000
vn 0.000000 0.000000 1.000000
vn 0.000000 0.000000 1.000000
vn 0.000000 0.000000 1.000000
vn 0.000000 0.000000 1.000000
vn 0.000000 0.000000 1.000000
vn 0.000000 0.000000 1.000000
vn 0.000000 0.000000 1.000000
vn 0.000000 0.000000 1.000000
vn 0.000000 0.000000 1.000000
vn 0.000000 0.000000 1.000000
vn 0.000000 0.000000 1.000000
vn 0.000000 0.000000 1.000000
vn 0.000000 0.000000 1.000000
vn 0.000000 0.000000 1.000000
vn 0.000000 0.000000 1.000000
vn 0.000000 0.000000 1.000000
vn 0.000000 0.000000 1.000000
vn 0.000000 0.000000 1.000000
vn 0.000000 0.000000 1.000000
vn 0.000000 0.000000 1.000000
vn 0.000000 0.000000 1.000000
vn 0.000000 0.000000 1.000000
vn 0.000000 0.000000 1.000000
vn 0.000000 0.000000 1.000000
vn 0.000000 0.000000 1.000000
vn 0.000000 0.000000 1.000000
vn 0.000000 0.000000 1.000000
vn 0.000000 0.000000 1.000000
vn 0.000000 0.000000 1.000000
vn 0.000000 0.000000 1.000000
vn 0.000000 0.000000 1.000000
vn 0.000000 0.000000 1.000000
vn 0.000000 0.000000 1.000000
vn 0.000000 0.000000 1.000000
vn 0.000000 0.000000 1.000000
vn 0.000000 0.000000 1.000000
vn 0.000000 0.000000 1.000000
s off
g rd_snippet_detached_ngon:polySurface10
usemtl initialShadingGroup
f 2//1 4//2 19//3 3//4 1//5
f 3//6 19//7 18//8 7//9
f 18//10 17//11 6//12 7//13
f 17//14 16//15 8//16 6//17
f 15//18 10//19 8//20 16//21
f 15//22 13//23 14//24 9//25 10//26
f 13//27 15//28 16//29 12//30
f 11//31 12//32 16//33 17//34
f 5//35 11//36 17//37 18//38
f 19//39 4//40 5//41 18//42
f 23//43 22//44 21//45 20//46
f 22//47 23//48 25//49 24//50
f 27//51 29//52 28//53 26//54
f 27//55 30//56 29//57
f 34//58 33//59 32//60 31//61
f 38//62 37//63 35//64 36//65
f 38//66 36//67 40//68 39//69
f 46//70 41//71 42//72 47//73
f 47//74 42//75 43//76 48//77
f 45//78 44//79 49//80 48//81 43//82
f 57//83 52//84 62//85 51//86 56//87
f 50//88 51//89 62//90 61//91
f 50//92 61//93 60//94 55//95
f 60//96 54//97 59//98 58//99 55//100
f 61//101 53//102 54//103 60//104
f 62//105 52//106 53//107 61//108
f 66//109 65//110 64//111 63//112
f 65//113 68//114 67//115 64//116
f 72//117 71//118 70//119 69//120
f 71//121 74//122 73//123 70//124
