# This file uses centimeters as units for non-parametric coordinates.

mtllib human_lowPoly.mtl
v 0.000000 0.465892 0.000000
v 0.594279 0.465892 0.000000
v 0.000000 0.000000 0.000000
v 0.594279 0.000000 0.000000
v 0.000000 -0.000000 1.727043
v 0.594279 -0.000000 1.727043
v 0.000000 0.465892 1.727043
v 0.594279 0.465892 1.727043
v 0.000000 0.000000 0.000000
v 0.594279 0.000000 0.000000
v 0.000000 -0.000000 1.727043
v 0.594279 -0.000000 1.727043
v 0.594279 0.000000 0.000000
v 0.594279 0.465892 0.000000
v 0.594279 -0.000000 1.727043
v 0.594279 0.465892 1.727043
v 0.594279 0.465892 0.000000
v 0.000000 0.465892 0.000000
v 0.594279 0.465892 1.727043
v 0.000000 0.465892 1.727043
v -0.000000 0.465892 0.000000
v -0.000000 0.000000 0.000000
v -0.000000 0.465892 1.727043
v -0.000000 -0.000000 1.727043
vn 0.000000 0.000000 -1.000000
vn 0.000000 0.000000 -1.000000
vn 0.000000 0.000000 -1.000000
vn 0.000000 0.000000 -1.000000
vn 0.000000 0.000000 1.000000
vn 0.000000 0.000000 1.000000
vn 0.000000 0.000000 1.000000
vn 0.000000 0.000000 1.000000
vn 0.000000 -1.000000 0.000000
vn 0.000000 -1.000000 0.000000
vn 0.000000 -1.000000 0.000000
vn 0.000000 -1.000000 0.000000
vn 1.000000 0.000000 0.000000
vn 1.000000 0.000000 0.000000
vn 1.000000 0.000000 0.000000
vn 1.000000 0.000000 0.000000
vn 0.000000 1.000000 0.000000
vn 0.000000 1.000000 0.000000
vn 0.000000 1.000000 0.000000
vn 0.000000 1.000000 0.000000
vn -1.000000 0.000000 0.000000
vn -1.000000 0.000000 0.000000
vn -1.000000 0.000000 0.000000
vn -1.000000 0.000000 0.000000
s off
g human_lowPoly:Mesh
usemtl initialShadingGroup
f 1//1 2//2 4//3 3//4
f 5//5 6//6 8//7 7//8
f 9//9 10//10 12//11 11//12
f 13//13 14//14 16//15 15//16
f 17//17 18//18 20//19 19//20
f 21//21 22//22 24//23 23//24
