# This file uses centimeters as units for non-parametric coordinates.

mtllib Plot03.mtl
g default
v -8.313837 -95.264431 0.000000
v -8.313837 -10.584940 0.000000
v -74.824525 -10.584940 0.000000
v 8.313837 -95.264431 0.000000
v 74.824525 -95.264431 0.000000
v 74.824525 -10.584940 0.000000
v 8.313837 -10.584940 0.000000
v -74.824525 10.584940 0.000000
v -8.313837 10.584940 0.000000
v -8.313837 95.264431 0.000000
v -74.824525 95.264431 0.000000
v 8.313837 10.584940 0.000000
v 74.824525 10.584940 0.000000
v 74.824525 95.264431 0.000000
v 8.313837 95.264431 0.000000
v -58.196852 -95.264431 0.000000
v -74.824525 -74.094557 0.000000
vt 0.500000 0.000000
vt 0.500000 0.500000
vt 0.000000 0.500000
vt 0.500000 0.000000
vt 1.000000 0.000000
vt 1.000000 0.500000
vt 0.500000 0.500000
vt 0.000000 0.500000
vt 0.500000 0.500000
vt 0.500000 1.000000
vt 0.000000 1.000000
vt 0.500000 0.500000
vt 1.000000 0.500000
vt 1.000000 1.000000
vt 0.500000 1.000000
vt 0.250000 0.000000
vt 0.000000 0.250000
vn 0.000000 0.000000 1.000000
vn 0.000000 0.000000 1.000000
vn 0.000000 0.000000 1.000000
vn 0.000000 0.000000 1.000000
vn 0.000000 0.000000 1.000000
vn 0.000000 0.000000 1.000000
vn 0.000000 0.000000 1.000000
vn 0.000000 0.000000 1.000000
vn 0.000000 0.000000 1.000000
vn 0.000000 0.000000 1.000000
vn 0.000000 0.000000 1.000000
vn 0.000000 0.000000 1.000000
vn 0.000000 0.000000 1.000000
vn 0.000000 0.000000 1.000000
vn 0.000000 0.000000 1.000000
vn 0.000000 0.000000 1.000000
vn 0.000000 0.000000 1.000000
s off
g pPlane4
usemtl initialShadingGroup
f 4/4/1 5/5/2 6/6/3 7/7/4
f 8/8/5 9/9/6 10/10/7 11/11/8
f 12/12/9 13/13/10 14/14/11 15/15/12
f 17/17/13 16/16/14 1/1/15 2/2/16 3/3/17
