# This file uses centimeters as units for non-parametric coordinates.

mtllib Plot_test_2.mtl
v 12.000000 -0.500000 0.000000
v 0.500000 -0.500000 0.000000
v 0.500000 -12.000000 0.000000
v 12.000000 -12.000000 0.000000
vt 0.750000 0.500000
vt 0.500000 0.500000
vt 0.500000 0.250000
vt 0.750000 0.250000
vn 0.000000 0.000000 1.000000
vn 0.000000 0.000000 1.000000
vn 0.000000 0.000000 1.000000
vn 0.000000 0.000000 1.000000
s off
g polySurface10 pPlane1
usemtl initialShadingGroup
f 1/1/1 2/2/2 3/3/3 4/4/4
